<mxfile host="www.draw.io" modified="2020-02-28T09:07:29.765Z" agent="Mozilla/5.0 (Windows NT 10.0; WOW64) AppleWebKit/537.36 (KHTML, like Gecko) Chrome/70.0.3538.25 Safari/537.36 Core/1.70.3719.400 QQBrowser/10.5.3715.400" etag="Jeq-1heL-H9D7Ug8vI2K" version="12.7.9" type="github">
  <diagram id="6a731a19-8d31-9384-78a2-239565b7b9f0" name="Page-1">
    <mxGraphModel dx="1381" dy="765" grid="1" gridSize="10" guides="1" tooltips="1" connect="1" arrows="1" fold="1" page="1" pageScale="1" pageWidth="1169" pageHeight="827" background="#ffffff" math="0" shadow="0">
      <root>
        <mxCell id="0" />
        <mxCell id="1" parent="0" />
        <mxCell id="Nkg5crQMooXMIVU06FW_-5" style="edgeStyle=orthogonalEdgeStyle;rounded=0;orthogonalLoop=1;jettySize=auto;html=1;exitX=1;exitY=0.3333333333333333;exitDx=0;exitDy=0;exitPerimeter=0;entryX=0;entryY=0.5;entryDx=0;entryDy=0;fontSize=14;" edge="1" parent="1" source="Nkg5crQMooXMIVU06FW_-3" target="Nkg5crQMooXMIVU06FW_-4">
          <mxGeometry relative="1" as="geometry" />
        </mxCell>
        <mxCell id="Nkg5crQMooXMIVU06FW_-6" value="new&amp;nbsp;指令" style="text;html=1;align=center;verticalAlign=middle;resizable=0;points=[];labelBackgroundColor=#ffffff;fontSize=14;" vertex="1" connectable="0" parent="Nkg5crQMooXMIVU06FW_-5">
          <mxGeometry x="0.1235" y="4" relative="1" as="geometry">
            <mxPoint as="offset" />
          </mxGeometry>
        </mxCell>
        <mxCell id="Nkg5crQMooXMIVU06FW_-3" value="Actor" style="shape=umlActor;verticalLabelPosition=bottom;labelBackgroundColor=#ffffff;verticalAlign=top;html=1;outlineConnect=0;fontSize=14;" vertex="1" parent="1">
          <mxGeometry x="260" y="134" width="30" height="60" as="geometry" />
        </mxCell>
        <mxCell id="Nkg5crQMooXMIVU06FW_-14" style="edgeStyle=orthogonalEdgeStyle;rounded=0;orthogonalLoop=1;jettySize=auto;html=1;fontSize=14;" edge="1" parent="1" source="Nkg5crQMooXMIVU06FW_-4" target="Nkg5crQMooXMIVU06FW_-7">
          <mxGeometry relative="1" as="geometry" />
        </mxCell>
        <mxCell id="Nkg5crQMooXMIVU06FW_-15" value="定位一个类的符号引用" style="text;html=1;align=center;verticalAlign=middle;resizable=0;points=[];labelBackgroundColor=#ffffff;fontSize=14;" vertex="1" connectable="0" parent="Nkg5crQMooXMIVU06FW_-14">
          <mxGeometry x="0.1222" y="-3" relative="1" as="geometry">
            <mxPoint as="offset" />
          </mxGeometry>
        </mxCell>
        <mxCell id="Nkg5crQMooXMIVU06FW_-4" value="虚拟机" style="ellipse;whiteSpace=wrap;html=1;fontSize=14;" vertex="1" parent="1">
          <mxGeometry x="400" y="10" width="120" height="80" as="geometry" />
        </mxCell>
        <mxCell id="Nkg5crQMooXMIVU06FW_-17" style="edgeStyle=orthogonalEdgeStyle;rounded=0;orthogonalLoop=1;jettySize=auto;html=1;entryX=0.5;entryY=0;entryDx=0;entryDy=0;fontSize=14;" edge="1" parent="1" source="Nkg5crQMooXMIVU06FW_-7" target="Nkg5crQMooXMIVU06FW_-16">
          <mxGeometry relative="1" as="geometry" />
        </mxCell>
        <mxCell id="Nkg5crQMooXMIVU06FW_-7" value="常量池" style="shape=cylinder;whiteSpace=wrap;html=1;boundedLbl=1;backgroundOutline=1;fontSize=14;" vertex="1" parent="1">
          <mxGeometry x="430" y="160" width="60" height="80" as="geometry" />
        </mxCell>
        <mxCell id="Nkg5crQMooXMIVU06FW_-19" style="edgeStyle=orthogonalEdgeStyle;rounded=0;orthogonalLoop=1;jettySize=auto;html=1;entryX=0;entryY=0.5;entryDx=0;entryDy=0;fontSize=14;" edge="1" parent="1" source="Nkg5crQMooXMIVU06FW_-16" target="Nkg5crQMooXMIVU06FW_-18">
          <mxGeometry relative="1" as="geometry" />
        </mxCell>
        <mxCell id="Nkg5crQMooXMIVU06FW_-20" value="否" style="text;html=1;align=center;verticalAlign=middle;resizable=0;points=[];labelBackgroundColor=#ffffff;fontSize=14;" vertex="1" connectable="0" parent="Nkg5crQMooXMIVU06FW_-19">
          <mxGeometry x="0.2727" y="-2" relative="1" as="geometry">
            <mxPoint as="offset" />
          </mxGeometry>
        </mxCell>
        <mxCell id="Nkg5crQMooXMIVU06FW_-22" value="是" style="edgeStyle=orthogonalEdgeStyle;rounded=0;orthogonalLoop=1;jettySize=auto;html=1;fontSize=14;" edge="1" parent="1" source="Nkg5crQMooXMIVU06FW_-16" target="Nkg5crQMooXMIVU06FW_-21">
          <mxGeometry relative="1" as="geometry" />
        </mxCell>
        <mxCell id="Nkg5crQMooXMIVU06FW_-16" value="&lt;font style=&quot;font-size: 14px;&quot;&gt;符号引用代表的类是否被加载,解析是初始化过&lt;/font&gt;" style="rhombus;whiteSpace=wrap;html=1;fontSize=14;" vertex="1" parent="1">
          <mxGeometry x="390" y="310" width="140" height="80" as="geometry" />
        </mxCell>
        <mxCell id="Nkg5crQMooXMIVU06FW_-18" value="classLoad执行类加载过程" style="rounded=1;whiteSpace=wrap;html=1;fontSize=14;" vertex="1" parent="1">
          <mxGeometry x="640" y="320" width="120" height="60" as="geometry" />
        </mxCell>
        <mxCell id="Nkg5crQMooXMIVU06FW_-21" value="为对象分配内存" style="rounded=1;whiteSpace=wrap;html=1;fontSize=14;" vertex="1" parent="1">
          <mxGeometry x="400" y="460" width="120" height="60" as="geometry" />
        </mxCell>
      </root>
    </mxGraphModel>
  </diagram>
</mxfile>
